<?xml version="1.0" encoding="utf-8"?>
<!DOCTYPE svg PUBLIC "-//W3C//DTD SVG 1.0//EN" "http://www.w3.org/TR/2001/REC-SVG-20010904/DTD/svg10.dtd">
<svg version="1.0" xmlns="http://www.w3.org/2000/svg" width="4096px" height="4096px" viewBox="0 0 4096 4096" preserveAspectRatio="xMidYMid meet">
 <g fill="#41985e">
  <path d="M 2043.80 3660.80 c -3.60 -4.40 -40.80 -26.40 -207.80 -122.80 -42.40 -24.60 -95.40 -55.60 -118 -69 -47.80 -28.60 -153.40 -90 -246 -143 -35.80 -20.40 -81.80 -47.20 -102 -59.40 -37.80 -22.40 -247.80 -145 -322 -187.60 -22.60 -13 -82 -47.60 -132 -77 -86.20 -50.60 -139.20 -81.40 -221 -128 -19.80 -11.40 -37.60 -21.60 -39.60 -22.80 -3.20 -2 -3.40 -42.40 -3.40 -802.20 l 0.20 -800 58.40 -33.80 c 32.20 -18.80 84.60 -49.20 116.40 -67.60 32 -18.60 59.40 -34.40 61 -35.40 1.60 -1 17 -10.20 34 -20.40 17 -10.20 50.40 -29.80 74 -43.40 23.60 -13.60 54.80 -31.60 69 -40 14.40 -8.20 30.60 -17.60 36 -20.40 5.60 -3 13.20 -7.40 17 -9.80 3.80 -2.20 8.40 -4.80 10 -5.40 1.60 -0.80 9 -5.40 16.20 -10.20 7.40 -4.60 14.20 -8.60 15.40 -8.60 1 0 8 -4.20 15.60 -9.20 7.60 -5.20 16.60 -10.60 19.80 -12.20 7.40 -3.40 10.20 -5.20 29.40 -17 8.40 -5.40 15.60 -9.60 16.40 -9.60 0.60 0 7.20 -4 14.60 -8.80 7.40 -4.80 17.60 -10.60 22.60 -13 5 -2.20 13 -6.80 18 -9.80 5 -3 12.20 -6.80 16 -8.40 3.80 -1.40 9.80 -4.80 13.40 -7.40 3.40 -2.40 7 -4.60 8 -4.60 1 0 4.80 -2.60 8.60 -5.60 3.80 -3.20 12.80 -9 20 -13.20 7.20 -4.20 14.40 -8.40 16 -9.40 1.60 -1 6.20 -3.40 10 -5.40 3.80 -2 10.60 -5.80 15 -8.60 4.40 -2.80 17 -10.40 28 -16.80 32.60 -19 94.20 -54.60 121 -70 13.80 -7.80 36.20 -21 50 -29 13.80 -8 35.80 -21 49 -28.60 30.40 -17.60 95 -55.20 99 -57.60 1.60 -1 8.80 -5 16 -9.20 7.20 -4 17.60 -10.20 23 -13.60 5.60 -3.60 11.40 -7 13 -7.80 1.60 -0.80 7.20 -3.80 12.40 -6.80 5 -3 18.60 -10.80 30 -17.20 11.20 -6.60 25.20 -15 31 -18.60 5.80 -3.60 11.40 -6.60 12.80 -6.60 1.20 0 5.60 -2.80 9.80 -6 4.20 -3.40 12 -8 17.40 -10.20 5.20 -2.40 11.40 -5.80 13.60 -7.80 2.20 -1.80 24.20 -15 49 -29 24.80 -14.20 50 -29 56 -33 6 -4 12 -7.80 13.20 -8.60 1.20 -0.80 6 1.40 10.60 4.60 4.60 3.40 34.60 21.40 66.80 39.80 32.20 18.60 78.20 45.40 102.40 59.60 94.80 55.60 118.40 69.40 186 108.60 38.60 22.40 84.80 49.40 103 60 33.40 19.60 99.20 57.80 205 119 32 18.40 72 41.80 89 51.60 17 10 48.20 28 69 40 21 12 52.80 30.60 71 41.40 18.20 10.80 49.20 29 69 40.40 19.80 11.40 50 29 67 39 17 10 65.60 38.40 108 63 87.60 51.20 132.20 77.40 201.40 118.20 l 48.40 28.40 0.20 800 0 800 -22.60 13 c -12.20 7 -31.80 18.40 -43.40 25 -11.60 6.80 -55.60 32.40 -98 57 -42.40 24.60 -104 60.60 -137 80 -33 19.40 -86 50.40 -118 69 -31.80 18.40 -99 57.40 -149 86.60 -50 29.20 -123.40 72 -163 95 -39.60 23 -91.40 53.20 -115 67 -23.60 13.80 -72.60 42.20 -109 63 -36.20 20.80 -89 51.60 -117 68.40 -28 16.80 -106.80 62.60 -175 102 -120.40 69.40 -143.80 83.40 -146.20 87.20 -1.60 2.60 -4 2.20 -7 -1.40 z  m 37.80 -121.60 c 38.20 -22.60 74.60 -44 135.40 -79.20 25.40 -14.60 67.20 -39 93 -54 25.80 -15.20 84 -48.80 129 -75 45.20 -26.20 104.60 -60.80 132 -77 27.60 -16.20 70.80 -41.40 96 -56 25.40 -14.60 66.80 -38.80 92 -53.60 112.60 -66.20 337.80 -197.60 391.60 -228.60 20.60 -12 57 -33.40 81 -47.40 23.80 -14.20 44.80 -26.20 46.40 -27 1.60 -0.60 19.60 -11.40 39.60 -23.80 l 36.80 -22.60 -0.20 -291 c 0 -160 0 -494.40 -0.20 -743 l 0 -452 -15.40 -9.20 c -71.60 -42 -109.60 -64.20 -173.60 -100.80 -40.60 -23.20 -106.80 -61.60 -147 -85 -85.60 -50.20 -151.80 -88.40 -267 -154.80 -46.20 -26.80 -115.40 -67 -154 -89.60 -38.40 -22.60 -104.20 -60.80 -146 -85 -41.80 -24.20 -112.80 -65.40 -158 -91.60 -45 -26.20 -104.40 -60.60 -132 -76.60 -27.40 -15.80 -64.20 -37.40 -81.60 -47.80 l -31.60 -19 -9.40 6 c -5.20 3.40 -24.60 15 -43.40 25.80 -18.60 11 -71.80 42 -118 69 -46.20 27 -115 67 -153 89 -103.20 59.80 -226.60 131.60 -265 154 -18.60 11 -53.40 31 -77 44.60 -23.60 13.60 -56.40 32.40 -73 42 -33.80 19.60 -72.80 42.20 -146 84.40 -27.40 16 -61.60 36 -75.80 44.40 -40.80 24.60 -166.20 97 -317.20 183.20 l -27 15.60 -0.60 743.80 -0.40 744 35.40 21 c 87.60 51.80 297 174.40 418.60 244.60 56.60 32.80 113.80 66 127 74 13.20 8 52.40 30.80 87 51 34.60 20 90.40 52.40 124 72 102.60 59.80 133.20 77.60 179 104.20 39.80 23 94.20 54.60 180.60 105 16.80 9.80 58.20 34.20 92 54.20 33.80 20 62.20 36.40 63 36.40 1 0.20 15.80 -8.20 33 -18.60 z "/>
  <path d="M 1839.20 3219.40 c -17.60 -3.60 -43.60 -18.20 -299.20 -167.80 -97 -56.80 -136.20 -79.60 -463 -269.60 -44 -25.60 -86.20 -50.60 -93.60 -55.40 -22 -14.60 -46 -38.60 -56 -56.20 -19.60 -34.40 -31.40 -70.80 -35.40 -108.60 -1.40 -13.40 -2 -194.40 -2 -539.80 l 0 -519.60 6.40 -1 c 3.60 -0.40 26 -1 49.60 -1.20 l 42.80 -0.40 106.40 -106 106.60 -105.80 139.60 0 139.80 0 24.60 -25.20 24.80 -25 -173.20 0.60 c -128.80 0.40 -172.60 0 -171.20 -1.60 1 -1.40 15.20 -10.20 31.40 -19.80 16.20 -9.60 64.80 -38.80 108.20 -64.80 l 78.80 -47.20 263.80 -0.60 263.60 -0.60 8.60 6 8.40 6 72 0 71.80 -0.20 13.20 13.80 c 13.20 13.80 26.60 28.60 138 151.20 l 63 69.40 24.20 0 24.40 0 58.20 58.80 58.40 58.60 109.40 27.60 c 60.20 15.20 117.60 30.20 127.40 33.40 29.20 9.40 69.20 32.20 121.40 69.40 15.20 10.80 28 20 28.60 20.60 0.60 0.60 0.20 3.60 -1.20 6.80 -6.20 16.60 -26.20 89.40 -27.20 100 -0.60 6.80 0 24.20 1.40 38.80 l 2.60 26.40 -31.20 31.40 -31 31.20 -4.40 21 c -11 52.20 -32.40 89.60 -73.60 128 -10.60 9.80 -20 18 -20.60 18 -0.80 0 -2 -5.60 -2.60 -12.40 -3.60 -31.20 -9.60 -57.60 -22 -96.20 -11.60 -36 -13.80 -41.60 -16.80 -40.20 -1.80 0.80 -32.60 2 -68.40 2.60 l -65 1.20 -24 20 c -13.20 11 -43.40 36.20 -67 55.80 -23.60 19.60 -44 37.60 -45.20 40 -1.40 2.40 -12.80 31.80 -25.60 65.60 -12.80 33.80 -28.20 74.40 -34.40 90 l -11.20 28.60 1.40 88.60 1.40 88.60 13 29.40 c 27.20 62 24 57 51.20 78.40 13.20 10.40 30.60 25 38.60 32.60 7.80 7.40 15.60 13.40 17.20 13.40 5.80 0 57.60 -27.80 73.80 -39.60 9.20 -6.60 26.20 -21.60 37.80 -33.20 11.40 -11.60 22.40 -21.20 24.40 -21.20 4.60 0 6.20 14.80 6.20 55 0 40.80 -4.60 60.40 -22.80 96.20 l -12.20 24.40 4.20 24.60 c 2.20 13.60 5 33 6.20 42.80 l 2 18 -79.80 79 -79.80 79.20 -1.20 -13.20 c -0.60 -7.20 -1.20 -23.60 -1.20 -36.80 l 0 -23.80 -9.20 1.40 c -5.20 0.60 -19.20 3.40 -31.60 6 -30.20 6.60 -81.40 15.60 -82.40 14.60 -0.40 -0.40 1.40 -23.20 4.20 -50.40 2.80 -27.40 5 -52 5 -54.80 0 -3.80 -7.20 -12.80 -27.60 -34.40 -15.20 -16 -37.80 -40.60 -50.20 -55 -12.60 -14.20 -23.60 -26 -24.60 -26.40 -0.80 -0.40 -1.60 86 -1.60 192 l 0 192.80 -98.60 110.80 c -113.20 127.40 -133.20 148.40 -150.40 157.40 -19.60 10.20 -42.40 13 -65.80 8 z  m 37.20 -33.60 c 25.80 -5.60 34.40 -13.80 145.60 -140 16 -18 45 -50.60 64.40 -72.20 l 35.60 -39.40 0 -191 c 0 -163.60 -0.40 -191.20 -2.80 -191.20 -2.60 0 -41.80 40.20 -56.40 57.80 l -5.80 7 -0.60 140.40 -0.60 140.40 -52.20 59.60 c -28.60 33 -68.40 78.20 -88.40 100.80 -19.80 22.60 -49.20 55.80 -65 74 -15.80 18.20 -30.60 35 -32.60 37.20 -3.80 4.40 -3.80 4.40 5.80 9 9.80 4.80 27.20 9.40 37 9.60 3 0.20 10.20 -0.80 16 -2 z  m -60.20 -62.20 c 15.80 -17.80 36 -40.60 45 -50.40 8.80 -10 41.60 -47.40 72.80 -83.20 31.40 -35.80 64.80 -73.80 74.40 -84.60 l 17.60 -19.60 0 -141 0 -140.80 48 -51.40 47.80 -51.60 0.20 -74.40 c 0 -41 -0.40 -74.60 -0.60 -74.60 -0.40 0 -40 40.20 -88 89.20 l -87.40 89 0 174 0 174 -56.40 64.40 c -30.80 35.40 -77.20 88.20 -102.80 117.40 -25.60 29.20 -48.40 55.40 -50.60 58.40 l -4.20 5.40 21.40 12.80 c 17 10.20 30.60 18 33.80 19.40 0 0 13.20 -14.60 29 -32.40 z  m -75.20 -58.60 c 18.60 -21 65.80 -74 104.40 -118 l 70.40 -80 0.20 -175.60 0 -175.60 103 -104 103 -104.20 0 -181.80 0 -181.60 -35.20 -35.20 c -19.40 -19.20 -35.60 -35 -36.20 -35 -0.40 0 -0.60 57.60 -0.40 128 l 0.60 128.20 -93 93.40 c -109.60 110.40 -190 192 -222.40 225.80 l -23.40 24.40 0 264.20 0 264.20 -31.20 35 c -17.20 19.40 -30.60 35.60 -29.80 36.40 3.60 3.80 50.40 30 53 29.80 1.60 -0.20 18.20 -17.60 37 -38.40 z  m -92.60 -42.60 l 31.60 -31.60 0 -267.40 0 -267.40 170 -170.80 170 -170.60 0 -135.80 0 -135.80 -72 -72 -72 -72 0 235.60 0.20 235.60 -5.40 6.40 c -2.80 3.60 -75 76.80 -160 162.80 l -154.80 156.40 0 261.60 0 261.60 28.60 17.40 c 15.60 9.60 29.20 17.60 30.20 17.60 1 0 16.20 -14.20 33.60 -31.60 z  m -124.40 -282.80 l 0.20 -258.60 33.20 -34 c 18.20 -18.60 90.20 -91.20 159.80 -161 l 126.40 -127 1.40 -159.60 c 1 -152.60 1 -159.60 -2.40 -159 -2 0.40 -71.60 69.20 -154.60 153.20 -83 84 -163.80 164.80 -179.40 179.60 l -28.60 26.80 -11 0 -11 0 0 380.60 0 380.60 31.60 18.40 c 17.20 10 32 18.20 33 18.40 0.80 0 1.40 -116.40 1.40 -258.40 z  m -98.80 -169 l -0.20 -369.60 -66.20 -0.60 -66 -0.40 -17.80 18.40 c -9.80 10.20 -92 93.20 -182.80 184.20 l -164.80 165.60 1.40 10.60 c 2 17 15.40 57.20 19 57.20 0.80 0 92.20 -91.80 203.20 -204 110.80 -112.20 202.40 -204 203.40 -204 0.80 0 1.80 151.80 2 337.20 l 0.60 337.40 33 18.60 c 18.20 10.40 33.60 18.80 34.20 18.80 0.60 0 1 -166.20 1 -369.40 z  m -100.40 -268.40 c -1.20 -1.20 -121.40 119.60 -285 286.20 l -74.20 75.60 5.80 8 c 3 4.40 10.60 11.40 16.60 15.60 l 11 7.80 127.60 -129.80 c 70.40 -71.20 128.60 -129.60 129.60 -129.60 1 0 1.80 83.40 1.80 204.60 l 0 204.80 33.60 19.80 33.40 20 0.60 -290.80 c 0.20 -160.20 -0.20 -291.60 -0.80 -292.20 z  m -98.80 370.80 c 0 -135.20 -0.40 -153 -3 -153 -1.60 0 -24.40 21.80 -50.40 48.60 -26.20 26.60 -68.60 69.80 -94.40 95.80 -28.60 29 -46.20 48.20 -45.20 49.20 1.20 1 36.60 22 79 46.40 42.40 24.60 85.20 49.40 95 55.20 10 6 18.20 10.80 18.60 10.80 0.20 0 0.40 -68.80 0.40 -153 z  m 1229.60 27.80 l 45.20 -44.20 -4.60 -25.80 c -2.60 -14.20 -5.60 -26.80 -6.60 -28.20 -1 -1.20 -10 -7.20 -20.20 -13.20 -28.80 -17.20 -74.80 -50.60 -91.40 -66.20 -8.20 -7.80 -25.40 -22.20 -38 -31.80 -30.80 -23.80 -33.40 -27.60 -66.80 -101.80 l -15.20 -33.60 0 -96 0 -96 8.20 -20.40 c 4.40 -11.40 19.80 -51.20 34 -88.60 14.40 -37.40 27.60 -72 29.40 -77 4 -10 20.80 -25 96.20 -85.60 21.40 -17.40 44.60 -36.40 51.80 -42.80 l 12.80 -11.20 81.40 -1 c 66 -0.60 87.80 -1.60 116.20 -5 19.20 -2.40 41 -4.80 48.20 -5.40 l 13.20 -1.20 25.60 -24.40 25.60 -24.20 -1.40 -16.20 c -3.20 -39.20 -1.80 -35.60 -20 -51 -9 -7.40 -41 -30.40 -71.20 -51 -30.20 -20.40 -55 -38.40 -55 -39.60 0 -1.80 18 -2.80 69.60 -3.80 38.40 -0.60 70 -1.60 70.60 -2 1.20 -1.40 -66.80 -42.80 -78.20 -47.60 -5.40 -2.40 -62.60 -17.40 -127 -33.20 -64.40 -16 -120.80 -30 -125.60 -31.20 -7.60 -2 -15 -8.80 -63.20 -58 l -54.60 -55.80 -159.40 0.60 -159.20 0.60 -75 76 -75 76 0 57 0 57 87.40 86 c 48 47.40 102.20 102 120.40 121.60 l 33.20 35.60 43 -43.60 c 23.60 -24 88.60 -89.60 144.40 -145.80 56 -56.40 101.60 -103.20 101.60 -104.20 0 -0.80 -9 -10.40 -20 -21.20 -11 -10.60 -20 -20.20 -20 -21.40 0 -1.20 7.20 -2 18.20 -2 l 18.40 0 13.20 10.80 c 7.20 6 18.40 16.20 24.80 22.80 l 11.60 11.80 -87.60 88.80 c -48.20 48.80 -118 119.80 -155.20 157.60 l -67.40 69 6.20 6.40 6.20 6.40 0 284.80 -0.20 284.60 27.20 31 c 14.80 17 42.80 49.40 62 72 19.20 22.60 38.20 44 42.20 47.40 l 7 6.60 -1.40 24.40 c -0.60 13.60 -1.80 30.20 -2.40 36.80 l -1.40 12.40 17.80 -2.80 c 9.80 -1.60 34.60 -6.40 55.40 -10.80 20.60 -4.40 38.80 -8 40.40 -8 2.40 0 3 4 3.20 23.60 0.20 22.60 0.20 23.20 3.20 16.40 1.80 -4.20 21.20 -24.60 48.20 -51.20 z  m 47 -150.20 c 7.20 -14.20 14.20 -33.40 18.40 -51.80 3 -13.20 1.40 -13.80 -12.40 -4 -13.80 9.60 -37.60 23.40 -50.60 29.20 -6.20 2.80 -11.40 6 -11.60 7 -0.20 1.20 9 8 20.80 15.20 11.60 7.40 22.20 14.40 23.40 15.60 3.60 3.60 4.60 2.80 12 -11.20 z  m -1128 -382 l 92.40 -0.60 189.40 -190.40 189.60 -190.60 0 -40.40 c 0 -42.40 0 -42.80 -8.60 -39.60 -1.40 0.60 -41.20 40.80 -88.40 89 l -85.60 88 -127.60 0 -127.40 0 -241.20 242.20 -241.20 242.40 0 78.20 0 78.20 178 -178 178 -178 92.60 -0.40 z  m 145.20 -314.60 l 126.80 0 67.20 -68.40 c 36.80 -37.80 76.60 -78.20 88 -90.20 l 21 -21.60 -239 0.60 -239 0.60 -145 146 c -79.80 80.40 -174 175.20 -209.40 211 l -64.20 65 -0.20 112.60 0 112.80 233.60 -234.40 233.40 -234.20 126.80 0.20 z  m -6.20 -212 l 182.40 -1 -55 -57.80 -55 -57.80 0 -15.80 0 -15.60 -147.60 0 -147.40 0 -135.20 135.60 c -74.40 74.40 -156.40 157 -182.40 183.40 l -47.40 47.80 0 95.20 0.20 95 202.60 -204 202.60 -204 182.20 -1 z  m 1193.60 294 c 12.60 -19.40 19.80 -35.80 25.60 -57.40 l 5 -18.60 -5.40 0 c -8.20 0 -59 6 -60 7 -0.40 0.40 2.80 12.80 7.20 27.40 4.60 14.60 9.60 32 11.40 38.60 4.40 16 4.60 17 6 17 0.60 0 5.20 -6.40 10.20 -14 z  m -1502.80 -402.40 l 73.40 -73.60 154.20 0 154 0 0.40 -65.40 0.60 -65.60 9 -1.40 c 5 -0.60 64.60 -1.40 132.60 -1.40 l 123.60 -0.20 10.40 6.60 c 5.80 3.60 19.80 12 31.40 18.40 11.60 6.40 34 19.20 49.80 28.60 l 28.80 16.80 13 -13.20 13.20 -13 -65 -66 -64.80 -65.80 -146.80 -0.20 -147 -0.20 -42.20 42 -42.20 42 -138.20 0 -138.20 0 -104.40 106 -104.60 106 -39.60 0 -39.80 0 0 139.80 0 139.80 102.60 -103.20 c 56.20 -56.80 135.40 -136.40 175.80 -176.80 z  m 641.60 71 c 0 -31.60 -0.40 -37.80 -3.20 -40.80 -2.60 -3 -3.20 -7.80 -3 -24.20 l 0.40 -20.60 23 -23 c 18.40 -18.40 23.20 -22.40 24.80 -20 1.60 2.40 7.80 -2.80 31 -26 16 -16 29 -29.40 29 -30 0 -0.60 -7 -4.60 -15.40 -9 -8.40 -4.40 -31.60 -17.60 -51.40 -29.40 l -35.80 -21.60 -112.60 0 c -62 0 -113 0.80 -113.60 1.80 -0.60 0.80 -0.60 35.20 0.20 76.20 l 1.20 74.60 35 37.20 c 19 20.40 45.80 49.60 59 64.60 l 24.40 27.40 53.60 0.20 53.40 0 0 -37.40 z  m 219 -319 c -36.40 -36.60 -84 -84.80 -105.80 -107.20 l -39.80 -40.60 -252.40 0.60 -252.40 0.60 -33.80 20.40 c -36.60 22.20 -59.40 36.60 -65.80 41.40 -3.60 2.80 25.60 3 282 3.20 l 286 0 74 74 74 74 50 0 50 0 -66 -66.40 z  m 186.80 53 c -12 -12.40 -64 -69.40 -115.80 -126.60 -11.60 -12.80 -29 -32 -39 -42.60 l -17.80 -19.40 -48.60 0 c -27.20 0 -48.60 0.80 -48.60 1.80 0 1 43.80 46.40 97.20 101 l 97.40 99.20 44.20 0 44 0 -13 -13.40 z "/>
 </g>
 <g fill="#d79a44">
  <path d="M 2732 2795.60 c -17 -8.60 -16 1.60 -16 -169.20 0 -163.20 -0.20 -159.20 10.80 -168 12 -9.40 28 -7.40 39.20 4.60 l 5 5.40 0.60 155.20 c 0.40 151.20 0.40 155.60 -3.40 161.80 -8.40 13.40 -22.20 17.40 -36.20 10.20 z "/>
  <path d="M 3104 2644.80 c -7.80 -3.20 -218.20 -212 -223.20 -221.20 -6 -11.20 -2.20 -27.60 8 -34.20 7.80 -5.20 19.60 -6.40 27.60 -2.60 3.80 1.80 54.60 51.40 115 111.80 101.80 102 108.20 109 109.60 116.80 3.20 20.60 -18.20 37.60 -37 29.40 z "/>
  <path d="M 2589.20 2435.60 c -2 -13.20 -5.20 -50.20 -4.40 -51.20 2.20 -2 15.60 4.40 20.20 9.80 10.20 12.20 5.80 33.20 -9 43.80 l -5.80 4.20 -1 -6.60 z "/>
  <path d="M2913.60 2253 C 2913.60 2346.40 2838 2422 2744.60 2422 2651.40 2422 2575.80 2346.40 2575.80 2253 2575.80 2159.80 2651.40 2084.20 2744.60 2084.20 2838 2084.20 2913.60 2159.80 2913.60 2253 Z M2719 2420.60  M2857.20 2252.60 C 2857.20 2190.20 2806.60 2139.60 2744.20 2139.60 2681.80 2139.60 2631.40 2190.20 2631.40 2252.60 2631.40 2315 2681.80 2365.60 2744.20 2365.60 2806.60 2365.60 2857.20 2315 2857.20 2252.60 Z M2769 2363 "/>
  <path d="M2789 2253.20 C 2789 2278.20 2768.80 2298.40 2743.80 2298.40 2718.80 2298.40 2698.60 2278.20 2698.60 2253.20 2698.60 2228.20 2718.80 2208 2743.80 2208 2768.80 2208 2789 2228.20 2789 2253.20 Z M2721 2292.20 "/>
  <path d="M 2326 2252 l 0 -28.20 100.60 0.60 c 94.80 0.60 100.80 0.80 106 4.40 16.80 11.40 14.60 40.80 -3.60 48.40 -5.60 2.20 -24.20 2.80 -105 2.80 l -98 0 0 -28 z "/>
  <path d="M 2960.20 2276.40 c -19.20 -9.60 -21 -34.40 -3.40 -47 l 6.20 -4.40 154.60 -0.60 c 171.40 -0.60 164.40 -1 172.60 12.40 5 8 5 22.40 0 30.40 -8.20 13.40 -1.40 12.80 -170.60 12.80 -141.40 0 -153.20 -0.20 -159.40 -3.60 z "/>
  <path d="M 2573 2117.80 c -4.80 -2.80 -104.80 -101.80 -127 -126 l -15.80 -17.20 17.60 -14 c 9.60 -7.80 19.40 -15.20 21.40 -16.60 3.60 -2.20 9.60 3.20 69 62.80 61.20 61.80 73.80 76.40 73.80 85.80 0 7 -7.60 20.40 -13.80 24 -6.60 3.80 -19.20 4.40 -25.20 1.20 z "/>
  <path d="M 2890.60 2116 c -11.20 -6.80 -16.20 -23.60 -10.20 -34.60 3.40 -6.40 211.20 -216.80 218.80 -221.40 7.80 -5 21.20 -5.20 29 -0.60 3.20 2 7.80 7.40 10.20 12.20 8 16.80 11.40 12.80 -108.80 134.20 -59.40 60 -109.80 110.20 -112.20 111.60 -6.60 3.80 -19.60 3 -26.80 -1.40 z "/>
  <path d="M 2731.60 2051 c -6.20 -3.40 -13.60 -14.60 -13.60 -20.80 0 -2.40 6.80 -11.60 17 -22.60 9.60 -10.20 21 -24.20 25.60 -31 4.60 -6.80 9 -12.60 10 -12.60 0.80 0 1.40 15 1.40 33.40 0 29.80 -0.40 34.20 -4.20 42 -2.40 4.80 -6.80 10 -10 11.60 -7 3.80 -19.20 3.80 -26.20 0 z "/>
  <path d="M 2368.60 1565.60 c -0.40 -1 -25.40 -1.60 -55.60 -1.60 -33.40 0 -56.80 -0.80 -60.20 -2.20 -3.20 -1 -10.60 -6.20 -16.80 -11.40 -19.60 -16.60 -62 -58.80 -60.80 -60.60 0.60 -1 34.80 -1.80 76 -1.80 l 74.80 0 16.40 14.40 c 9.20 8 27.80 25.40 41.60 38.80 l 25 24.60 -19.80 0.60 c -10.80 0.40 -20 0 -20.60 -0.80 z "/>
  <path d="M 1782 1503 l -61 -61 60.60 0 60.80 0 17.20 12 c 17.40 11.80 30.40 23 30.40 25.60 0 0.80 -9.80 11.40 -22 23.40 l -22 22 0 19.40 c 0 10.80 -0.60 19.60 -1.60 19.60 -0.80 0 -28.80 -27.40 -62.40 -61 z "/>
 </g>
</svg>